<?xml version="1.0" encoding="utf-8"?>
<!-- Generator: Adobe Illustrator 24.1.2, SVG Export Plug-In . SVG Version: 6.00 Build 0)  -->
<svg version="1.1" id="Layer_1" xmlns="http://www.w3.org/2000/svg" xmlns:xlink="http://www.w3.org/1999/xlink" x="0px" y="0px"
	 viewBox="0 0 496 201" style="enable-background:new 0 0 496 201;" xml:space="preserve">
<style type="text/css">
	.st0{fill:#FFFFFF;}
	.st1{font-family:'Helvetica-Bold';}
	.st2{font-size:49px;}
</style>
<g>
	<circle cx="67" cy="100.5" r="67"/>
	<g>
		<path class="st0" d="M65,73.9c10,0,19.8,0,29.8,0c0,1.9,0,3.6,0,5.2c-0.3,0.2-0.5,0.3-0.7,0.4c-8.4,0.8-9.3,1.9-9.4,10.4
			c-0.1,15.2,0,30.4-0.6,45.6c-0.4,10.7-8.2,18.4-19.1,19.5C65,128.1,65,101.3,65,73.9z"/>
		<path class="st0" d="M91.4,54.3C86.7,59,81.9,63.8,77,68.6c-4.6-4.7-9.4-9.6-13.9-14.2c4.6-4.6,9.5-9.5,14.3-14.3
			C81.8,44.5,86.6,49.4,91.4,54.3z"/>
		<path class="st0" d="M62,143.8c0.1,6.4-5,11.6-11.4,11.6c-6.3,0.1-11.5-5.2-11.5-11.5c0-6.2,5-11.2,11.3-11.3
			C56.9,132.4,62,137.3,62,143.8z"/>
	</g>
</g>
<text transform="matrix(1 0 0 1 137.5391 109.7832)" class="st1 st2">Jey Collections</text>
</svg>
