<?xml version="1.0" encoding="utf-8"?>
<!-- Generator: Adobe Illustrator 24.1.2, SVG Export Plug-In . SVG Version: 6.00 Build 0)  -->
<svg version="1.1" id="Layer_1" xmlns="http://www.w3.org/2000/svg" xmlns:xlink="http://www.w3.org/1999/xlink" x="0px" y="0px"
	 viewBox="0 0 366 201" style="enable-background:new 0 0 366 201;" xml:space="preserve">
<style type="text/css">
	.st0{fill:#FFFFFF;}
	.st1{font-family:'Helvetica-Bold';}
	.st2{font-size:49px;}
</style>
<circle cx="183" cy="70" r="67"/>
<g>
	<path class="st0" d="M181,43.4c10,0,19.8,0,29.8,0c0,1.9,0,3.6,0,5.2c-0.3,0.2-0.5,0.3-0.7,0.4c-8.4,0.8-9.3,1.9-9.4,10.4
		c-0.1,15.2,0,30.4-0.6,45.6c-0.4,10.7-8.2,18.4-19.1,19.5C181,97.6,181,70.8,181,43.4z"/>
	<path class="st0" d="M207.4,23.8c-4.7,4.7-9.6,9.5-14.4,14.3c-4.6-4.7-9.4-9.6-13.9-14.2c4.6-4.6,9.5-9.5,14.3-14.3
		C197.8,14,202.6,18.9,207.4,23.8z"/>
	<path class="st0" d="M178,113.3c0.1,6.4-5,11.6-11.4,11.6c-6.3,0.1-11.5-5.2-11.5-11.5c0-6.2,5-11.2,11.3-11.3
		C172.9,101.9,178,106.8,178,113.3z"/>
</g>
<text transform="matrix(1 0 0 1 3.2695 188)" class="st1 st2">Jey Collections</text>
</svg>
