<?xml version="1.0" encoding="utf-8"?>
<!-- Generator: Adobe Illustrator 24.1.2, SVG Export Plug-In . SVG Version: 6.00 Build 0)  -->
<svg version="1.1" id="Layer_1" xmlns="http://www.w3.org/2000/svg" xmlns:xlink="http://www.w3.org/1999/xlink" x="0px" y="0px"
	 viewBox="0 0 256 83" style="enable-background:new 0 0 256 83;" xml:space="preserve">
<style type="text/css">
	.st0{fill-rule:evenodd;clip-rule:evenodd;fill:#FBB231;}
	.st1{fill-rule:evenodd;clip-rule:evenodd;fill:#EC1C2E;}
	.st2{fill-rule:evenodd;clip-rule:evenodd;fill:#FFFFFF;}
	.st3{fill:none;stroke:#FFFFFF;stroke-width:0.216;stroke-miterlimit:2.6131;}
</style>
<polygon class="st0" points="154.1,84 156.3,83.9 158.5,83.8 160.7,83.5 162.8,83.1 164.9,82.7 167,82.1 169,81.4 171,80.7 
	172.9,79.8 174.8,78.9 176.6,77.8 178.4,76.7 180.1,75.5 181.7,74.3 183.3,72.9 184.8,71.5 186.3,70.1 187.6,68.5 188.9,66.9 
	190.2,65.2 191.3,63.5 192.3,61.7 193.3,59.9 194.2,58 194.9,56.1 195.6,54.1 196.2,52.1 196.7,50 197.1,47.9 197.4,45.8 
	197.5,43.6 197.6,41.4 197.5,39.2 197.4,37.1 197.1,35 196.7,32.9 196.2,30.8 195.6,28.8 194.9,26.9 194.2,24.9 193.3,23.1 
	192.3,21.2 191.3,19.5 190.2,17.7 188.9,16.1 187.6,14.5 186.3,12.9 184.8,11.4 183.3,10 181.7,8.7 180.1,7.4 178.4,6.3 176.6,5.2 
	174.8,4.1 172.9,3.2 171,2.3 169,1.6 167,0.9 164.9,0.3 162.8,-0.1 160.7,-0.5 158.5,-0.8 156.3,-0.9 154.1,-1 151.8,-0.9 
	149.6,-0.8 147.5,-0.5 145.3,-0.1 143.2,0.3 141.1,0.9 139.1,1.6 137.2,2.3 135.2,3.2 133.4,4.1 131.6,5.2 129.8,6.3 128.1,7.4 
	126.5,8.7 124.9,10 123.4,11.4 122,12.9 120.6,14.5 119.3,16.1 118.1,17.7 117,19.5 115.9,21.2 115,23.1 114.1,24.9 113.3,26.9 
	112.6,28.8 112.1,30.8 111.6,32.9 111.2,35 110.9,37.1 110.8,39.2 110.7,41.4 110.8,43.6 110.9,45.8 111.2,47.9 111.6,50 
	112.1,52.1 112.6,54.1 113.3,56.1 114.1,58 115,59.9 115.9,61.7 117,63.5 118.1,65.2 119.3,66.9 120.6,68.5 122,70.1 123.4,71.5 
	124.9,72.9 126.5,74.3 128.1,75.5 129.8,76.7 131.6,77.8 133.4,78.9 135.2,79.8 137.2,80.7 139.1,81.4 141.1,82.1 143.2,82.7 
	145.3,83.1 147.5,83.5 149.6,83.8 151.8,83.9 154.1,84 154.1,84 "/>
<polygon class="st1" points="95.9,84 98.2,83.9 100.4,83.8 102.5,83.5 104.7,83.1 106.8,82.7 108.9,82.1 110.9,81.4 112.8,80.7 
	114.8,79.8 116.6,78.9 118.4,77.8 120.2,76.7 121.9,75.5 123.5,74.3 125.1,72.9 126.6,71.5 128,70.1 129.4,68.5 130.7,66.9 
	131.9,65.2 133,63.5 134.1,61.7 135,59.9 135.9,58 136.7,56.1 137.4,54.1 137.9,52.1 138.4,50 138.8,47.9 139.1,45.8 139.2,43.6 
	139.3,41.4 139.2,39.2 139.1,37.1 138.8,35 138.4,32.9 137.9,30.8 137.4,28.8 136.7,26.9 135.9,24.9 135,23.1 134.1,21.2 133,19.5 
	131.9,17.7 130.7,16.1 129.4,14.5 128,12.9 126.6,11.4 125.1,10 123.5,8.7 121.9,7.4 120.2,6.3 118.4,5.2 116.6,4.1 114.8,3.2 
	112.8,2.3 110.9,1.6 108.9,0.9 106.8,0.3 104.7,-0.1 102.5,-0.5 100.4,-0.8 98.2,-0.9 95.9,-1 93.7,-0.9 91.5,-0.8 89.3,-0.5 
	87.2,-0.1 85.1,0.3 83,0.9 81,1.6 79,2.3 77.1,3.2 75.2,4.1 73.4,5.2 71.6,6.3 69.9,7.4 68.3,8.7 66.7,10 65.2,11.4 63.7,12.9 
	62.4,14.5 61.1,16.1 59.8,17.7 58.7,19.5 57.7,21.2 56.7,23.1 55.8,24.9 55.1,26.9 54.4,28.8 53.8,30.8 53.3,32.9 52.9,35 
	52.6,37.1 52.5,39.2 52.4,41.4 52.5,43.6 52.6,45.8 52.9,47.9 53.3,50 53.8,52.1 54.4,54.1 55.1,56.1 55.8,58 56.7,59.9 57.7,61.7 
	58.7,63.5 59.8,65.2 61.1,66.9 62.4,68.5 63.7,70.1 65.2,71.5 66.7,72.9 68.3,74.3 69.9,75.5 71.6,76.7 73.4,77.8 75.2,78.9 
	77.1,79.8 79,80.7 81,81.4 83,82.1 85.1,82.7 87.2,83.1 89.3,83.5 91.5,83.8 93.7,83.9 95.9,84 95.9,84 "/>
<polygon class="st0" points="119.9,15.3 143,15.3 143,13 121.9,13 119.9,15.3 119.9,15.3 "/>
<polygon class="st0" points="116.5,20.4 143,20.4 143,18.1 117.8,18.1 116.5,20.4 116.5,20.4 "/>
<polygon class="st0" points="113.9,25.6 143,25.6 143,23.2 114.9,23.2 113.9,25.6 113.9,25.6 "/>
<polygon class="st0" points="112.1,30.7 143,30.7 143,28.4 112.8,28.4 112.1,30.7 112.1,30.7 "/>
<polygon class="st0" points="113.1,55.5 143.1,55.5 143.1,53.2 112.4,53.2 113.1,55.5 113.1,55.5 "/>
<polygon class="st0" points="115.3,60.6 143.1,60.6 143.1,58.3 114.2,58.3 115.3,60.6 115.3,60.6 "/>
<polygon class="st0" points="118.4,65.7 143.1,65.7 143.1,63.4 117,63.4 118.4,65.7 118.4,65.7 "/>
<polygon class="st0" points="122.7,70.9 143.1,70.9 143.1,68.5 120.7,68.5 122.7,70.9 122.7,70.9 "/>
<polygon class="st0" points="111.1,35.8 143,35.8 143,33.5 111.5,33.5 111.1,35.8 111.1,35.8 "/>
<polygon class="st0" points="130.5,50.4 142.7,50.4 142.7,48.1 131,48.1 130.5,50.4 130.5,50.4 "/>
<polygon class="st0" points="131.5,45.2 142.7,45.2 142.7,42.9 131.9,42.9 131.5,45.2 131.5,45.2 "/>
<polygon class="st0" points="110.3,42.9 113.4,42.9 113.4,45.2 110.4,45.2 110.3,42.9 110.3,42.9 "/>
<polygon class="st2" points="104.4,40.1 104.1,40.1 103.9,40.1 103.8,40.1 103.6,40 103.4,40 103.2,40 103,39.9 102.8,39.9 
	102.6,39.9 102.4,39.9 102.1,39.9 101.8,39.8 101.5,39.8 101.2,39.9 100.8,39.9 100.4,39.9 100.1,40 99.8,40 99.5,40.1 99.3,40.2 
	99.1,40.3 98.9,40.4 98.8,40.5 98.7,40.7 98.6,40.8 98.5,41 98.5,41.1 98.5,41.3 98.5,41.5 98.6,41.7 98.7,41.9 98.8,42.1 
	99.1,42.3 99.5,42.6 99.9,42.7 100.3,42.9 100.8,43 101.3,43.2 101.8,43.4 102.2,43.6 102.7,43.8 103.1,44.1 103.4,44.5 103.8,44.9 
	104,45.4 104.1,46.1 104.2,46.9 104.1,47.8 104,48.4 103.9,49 103.6,49.6 103.3,50.1 103,50.5 102.6,50.8 102.2,51.1 101.7,51.4 
	101.3,51.6 100.8,51.8 100.3,52 99.8,52.1 99.3,52.2 98.8,52.2 98.3,52.2 97.9,52.2 97.2,52.2 96.6,52.2 96.1,52.2 95.6,52.2 
	95.2,52.2 94.8,52.2 94.5,52.1 94.1,52.1 93.8,52.1 93.5,52 93.3,52 93,51.9 92.8,51.8 92.5,51.8 92.3,51.7 92,51.6 92.7,48.4 
	92.8,48.4 93,48.5 93.2,48.5 93.4,48.6 93.7,48.7 94,48.7 94.3,48.8 94.7,48.8 95,48.9 95.4,49 95.8,49 96.2,49 96.7,49.1 
	97.1,49.1 97.5,49.1 97.9,49.1 98.4,49 98.7,48.9 99,48.7 99.2,48.5 99.3,48.3 99.4,48.1 99.5,47.8 99.6,47.6 99.6,47.2 99.5,46.9 
	99.2,46.6 98.8,46.3 98.4,46.1 97.9,45.9 97.3,45.7 96.7,45.5 96.2,45.2 95.6,44.9 95.1,44.5 94.6,44.1 94.3,43.5 94,42.9 
	93.9,42.1 93.9,41.2 93.9,40.6 94,40.1 94.2,39.6 94.4,39.2 94.6,38.7 94.9,38.4 95.2,38 95.5,37.7 96,37.4 96.4,37.2 97,37 
	97.6,36.8 98.2,36.7 98.9,36.6 99.7,36.5 100.6,36.5 101.1,36.5 101.6,36.5 102.1,36.5 102.5,36.6 102.9,36.6 103.2,36.6 
	103.5,36.6 103.8,36.7 104,36.7 104.2,36.7 104.4,36.8 104.6,36.8 104.7,36.8 104.8,36.8 105,36.9 105.1,36.9 104.4,40.1 
	104.4,40.1 "/>
<polyline class="st3" points="104.4,40.1 104.4,40.1 104.1,40.1 103.9,40.1 103.8,40.1 103.6,40 103.4,40 103.2,40 103,39.9 
	102.8,39.9 102.6,39.9 102.4,39.9 102.1,39.9 101.8,39.8 101.5,39.8 101.2,39.9 100.8,39.9 100.4,39.9 100.4,39.9 100.1,40 99.8,40 
	99.5,40.1 99.3,40.2 99.1,40.3 98.9,40.4 98.8,40.5 98.7,40.7 98.6,40.8 98.5,41 98.5,41.1 98.5,41.3 98.5,41.5 98.6,41.7 
	98.7,41.9 98.8,42.1 98.8,42.1 99.1,42.3 99.5,42.6 99.9,42.7 100.3,42.9 100.8,43 101.3,43.2 101.8,43.4 102.2,43.6 102.7,43.8 
	103.1,44.1 103.4,44.5 103.8,44.9 104,45.4 104.1,46.1 104.2,46.9 104.1,47.8 104.1,47.8 104,48.4 103.9,49 103.6,49.6 103.3,50.1 
	103,50.5 102.6,50.8 102.2,51.1 101.7,51.4 101.3,51.6 100.8,51.8 100.3,52 99.8,52.1 99.3,52.2 98.8,52.2 98.3,52.2 97.9,52.2 
	97.9,52.2 97.2,52.2 96.6,52.2 96.1,52.2 95.6,52.2 95.2,52.2 94.8,52.2 94.5,52.1 94.1,52.1 93.8,52.1 93.5,52 93.3,52 93,51.9 
	92.8,51.8 92.5,51.8 92.3,51.7 92,51.6 92.7,48.4 92.7,48.4 92.8,48.4 93,48.5 93.2,48.5 93.4,48.6 93.7,48.7 94,48.7 94.3,48.8 
	94.7,48.8 95,48.9 95.4,49 95.8,49 96.2,49 96.7,49.1 97.1,49.1 97.5,49.1 97.9,49.1 97.9,49.1 98.4,49 98.7,48.9 99,48.7 
	99.2,48.5 99.3,48.3 99.4,48.1 99.5,47.8 99.6,47.6 99.6,47.6 99.6,47.2 99.5,46.9 99.2,46.6 98.8,46.3 98.4,46.1 97.9,45.9 
	97.3,45.7 96.7,45.5 96.2,45.2 95.6,44.9 95.1,44.5 94.6,44.1 94.3,43.5 94,42.9 93.9,42.1 93.9,41.2 93.9,41.2 93.9,40.6 94,40.1 
	94.2,39.6 94.4,39.2 94.6,38.7 94.9,38.4 95.2,38 95.5,37.7 96,37.4 96.4,37.2 97,37 97.6,36.8 98.2,36.7 98.9,36.6 99.7,36.5 
	100.6,36.5 100.6,36.5 101.1,36.5 101.6,36.5 102.1,36.5 102.5,36.6 102.9,36.6 103.2,36.6 103.5,36.6 103.8,36.7 104,36.7 
	104.2,36.7 104.4,36.8 104.6,36.8 104.7,36.8 104.8,36.8 105,36.9 105.1,36.9 104.4,40.1 "/>
<polygon class="st2" points="107.8,33.4 111.9,33.4 111.3,36.8 113.7,36.8 113.2,40.1 110.6,40 109.2,48 109.2,48.3 109.3,48.5 
	109.4,48.7 109.6,48.9 109.9,49 110.2,49 110.5,49.1 110.8,49.1 111.2,49.1 111.5,49.1 111.7,49 112,49 112.1,48.9 112.3,48.9 
	112.4,48.9 112.4,48.8 111.9,51.5 111.8,51.6 111.7,51.6 111.6,51.7 111.5,51.8 111.4,51.8 111.3,51.8 111.1,51.9 111,51.9 
	110.8,52 110.7,52 110.5,52 110.3,52.1 110.2,52.1 109.9,52.1 109.7,52.1 109.5,52.2 108.3,52.2 107.8,52.1 107.2,52.1 106.8,52 
	106.4,51.9 106,51.8 105.8,51.6 105.5,51.4 105.3,51.3 105.2,51.1 105.1,50.8 105,50.6 105,50.3 104.9,50 104.9,49.7 105,49.3 
	105,49 107.8,33.4 107.8,33.4 "/>
<polyline class="st3" points="107.8,33.4 111.9,33.4 111.3,36.8 113.7,36.8 113.2,40.1 110.6,40 109.2,48 109.2,48 109.2,48.3 
	109.3,48.5 109.4,48.7 109.6,48.9 109.9,49 110.2,49 110.5,49.1 110.8,49.1 110.8,49.1 111.2,49.1 111.5,49.1 111.7,49 112,49 
	112.1,48.9 112.3,48.9 112.4,48.9 112.4,48.8 111.9,51.5 111.9,51.5 111.8,51.6 111.7,51.6 111.6,51.7 111.5,51.8 111.4,51.8 
	111.3,51.8 111.1,51.9 111,51.9 110.8,52 110.7,52 110.5,52 110.3,52.1 110.2,52.1 109.9,52.1 109.7,52.1 109.5,52.2 108.3,52.2 
	108.3,52.2 107.8,52.1 107.2,52.1 106.8,52 106.4,51.9 106,51.8 105.8,51.6 105.5,51.4 105.3,51.3 105.2,51.1 105.1,50.8 105,50.6 
	105,50.3 104.9,50 104.9,49.7 105,49.3 105,49 107.8,33.4 "/>
<polygon class="st2" points="117,45.5 116.9,45.7 116.9,46 116.9,46.2 117,46.5 117.1,46.8 117.2,47 117.4,47.3 117.6,47.6 
	117.8,47.8 118,48 118.2,48.2 118.5,48.4 118.7,48.6 119,48.7 119.3,48.8 119.6,48.8 120,48.9 120.4,48.9 120.7,49 121.1,49 
	121.5,49 121.9,49 122.3,49 122.7,49 123.1,48.9 123.5,48.9 123.9,48.8 124.3,48.6 124.7,48.5 125.1,48.3 125.5,48.1 126,47.8 
	125.4,51.4 125.1,51.5 124.9,51.6 124.7,51.7 124.4,51.8 124.2,51.8 124,51.9 123.8,52 123.5,52 123.2,52.1 122.9,52.1 122.6,52.1 
	122.3,52.1 121.9,52.2 121.5,52.2 121.1,52.2 120.6,52.2 119.9,52.2 119.1,52.1 118.4,52 117.7,51.8 117,51.6 116.3,51.3 115.6,51 
	115,50.6 114.4,50.1 113.9,49.5 113.5,48.8 113.1,48.1 112.9,47.2 112.7,46.3 112.7,45.2 112.8,44 112.8,43.6 112.9,43 113,42.5 
	113.2,41.9 113.4,41.2 113.7,40.6 114,40 114.4,39.4 114.9,38.8 115.5,38.3 116.1,37.8 116.8,37.4 117.7,37 118.6,36.7 119.7,36.6 
	120.9,36.5 121.5,36.5 122.1,36.6 122.7,36.7 123.3,36.8 123.8,37 124.4,37.3 124.9,37.7 125.4,38.1 125.9,38.5 126.2,39.1 
	126.5,39.8 126.7,40.5 126.8,41.4 126.9,42.4 126.8,43.5 126.5,44.7 126.5,45.5 115.8,45.5 116.5,42.7 122.9,42.7 122.9,42.4 
	122.9,42 122.9,41.7 122.8,41.4 122.7,41.1 122.6,40.9 122.5,40.7 122.3,40.5 122.1,40.3 121.9,40.2 121.7,40 121.5,39.9 
	121.3,39.8 121,39.8 120.8,39.7 120.5,39.7 120.2,39.7 120,39.8 119.7,39.8 119.5,39.9 119.2,40 119,40.1 118.8,40.3 118.6,40.5 
	118.4,40.7 118.2,40.9 118.1,41.1 117.9,41.4 117.8,41.6 117.7,41.9 117.6,42.2 117.6,42.5 117,45.5 117,45.5 "/>
<polyline class="st3" points="117,45.5 117,45.5 116.9,45.7 116.9,46 116.9,46.2 117,46.5 117.1,46.8 117.2,47 117.4,47.3 
	117.6,47.6 117.8,47.8 118,48 118.2,48.2 118.5,48.4 118.7,48.6 119,48.7 119.3,48.8 119.6,48.8 119.6,48.8 120,48.9 120.4,48.9 
	120.7,49 121.1,49 121.5,49 121.9,49 122.3,49 122.7,49 123.1,48.9 123.5,48.9 123.9,48.8 124.3,48.6 124.7,48.5 125.1,48.3 
	125.5,48.1 126,47.8 125.4,51.4 125.4,51.4 125.1,51.5 124.9,51.6 124.7,51.7 124.4,51.8 124.2,51.8 124,51.9 123.8,52 123.5,52 
	123.2,52.1 122.9,52.1 122.6,52.1 122.3,52.1 121.9,52.2 121.5,52.2 121.1,52.2 120.6,52.2 120.6,52.2 119.9,52.2 119.1,52.1 
	118.4,52 117.7,51.8 117,51.6 116.3,51.3 115.6,51 115,50.6 114.4,50.1 113.9,49.5 113.5,48.8 113.1,48.1 112.9,47.2 112.7,46.3 
	112.7,45.2 112.8,44 112.8,44 112.8,43.6 112.9,43 113,42.5 113.2,41.9 113.4,41.2 113.7,40.6 114,40 114.4,39.4 114.9,38.8 
	115.5,38.3 116.1,37.8 116.8,37.4 117.7,37 118.6,36.7 119.7,36.6 120.9,36.5 120.9,36.5 121.5,36.5 122.1,36.6 122.7,36.7 
	123.3,36.8 123.8,37 124.4,37.3 124.9,37.7 125.4,38.1 125.9,38.5 126.2,39.1 126.5,39.8 126.7,40.5 126.8,41.4 126.9,42.4 
	126.8,43.5 126.5,44.7 126.5,45.5 115.8,45.5 116.5,42.7 122.9,42.7 122.9,42.7 122.9,42.4 122.9,42 122.9,41.7 122.8,41.4 
	122.7,41.1 122.6,40.9 122.5,40.7 122.3,40.5 122.1,40.3 121.9,40.2 121.7,40 121.5,39.9 121.3,39.8 121,39.8 120.8,39.7 
	120.5,39.7 120.5,39.7 120.2,39.7 120,39.8 119.7,39.8 119.5,39.9 119.2,40 119,40.1 118.8,40.3 118.6,40.5 118.4,40.7 118.2,40.9 
	118.1,41.1 117.9,41.4 117.8,41.6 117.7,41.9 117.6,42.2 117.6,42.5 117,45.5 "/>
<polygon class="st2" points="151.9,37.7 151.7,37.6 151.5,37.5 151.3,37.4 151.1,37.3 150.9,37.2 150.6,37.1 150.4,37 150.1,36.9 
	149.9,36.9 149.6,36.8 149.3,36.8 149,36.7 148.6,36.7 148.3,36.7 147.9,36.7 147.6,36.7 147.2,36.7 146.8,36.7 146.4,36.7 
	146,36.8 145.6,36.9 145.2,37.1 144.8,37.3 144.4,37.5 144,37.9 143.6,38.2 143.2,38.7 142.9,39.2 142.6,39.8 142.2,40.6 142,41.4 
	141.7,42.3 141.6,42.8 141.6,43.3 141.6,43.8 141.6,44.3 141.6,44.8 141.7,45.2 141.9,45.7 142,46.1 142.2,46.5 142.5,46.9 
	142.8,47.2 143.2,47.5 143.6,47.7 144,48 144.5,48.1 145.1,48.3 145.3,48.3 145.5,48.4 145.7,48.4 146,48.4 146.4,48.4 146.7,48.4 
	147.1,48.4 147.4,48.4 147.8,48.4 148.2,48.3 148.6,48.2 148.9,48.1 149.3,47.9 149.6,47.7 149.9,47.5 150.2,47.3 149.6,51.1 
	149.5,51.2 149.4,51.2 149.3,51.3 149.1,51.4 149,51.5 148.8,51.6 148.5,51.7 148.3,51.8 147.9,51.9 147.6,52 147.1,52.1 
	146.6,52.1 146,52.1 145.4,52.2 144.6,52.1 143.8,52.1 143.1,52 142.5,51.9 141.8,51.7 141.1,51.4 140.5,51 139.8,50.6 139.3,50.1 
	138.7,49.5 138.2,48.9 137.8,48.2 137.5,47.4 137.2,46.5 137,45.5 137,44.5 137,43.4 137.2,42.2 137.3,41.6 137.4,41 137.6,40.5 
	137.7,40 137.9,39.5 138.1,39 138.2,38.5 138.5,38 138.7,37.6 138.9,37.2 139.1,36.8 139.4,36.4 139.7,36 140,35.7 140.3,35.4 
	140.6,35.1 140.9,34.8 141.2,34.5 141.6,34.3 142,34.1 142.4,33.8 142.7,33.7 143.2,33.5 143.6,33.3 144,33.2 144.5,33.1 145,33 
	145.5,32.9 146,32.8 146.5,32.7 147,32.7 147.6,32.7 148,32.7 148.5,32.7 148.9,32.8 149.4,32.8 149.8,32.9 150.2,33 150.6,33.1 
	150.9,33.1 151.2,33.2 151.5,33.3 151.8,33.4 152.1,33.5 152.3,33.6 152.4,33.6 152.6,33.7 152.7,33.7 151.9,37.7 151.9,37.7 "/>
<polyline class="st3" points="151.9,37.7 151.9,37.7 151.7,37.6 151.5,37.5 151.3,37.4 151.1,37.3 150.9,37.2 150.6,37.1 150.4,37 
	150.1,36.9 149.9,36.9 149.6,36.8 149.3,36.8 149,36.7 148.6,36.7 148.3,36.7 147.9,36.7 147.6,36.7 147.6,36.7 147.2,36.7 
	146.8,36.7 146.4,36.7 146,36.8 145.6,36.9 145.2,37.1 144.8,37.3 144.4,37.5 144,37.9 143.6,38.2 143.2,38.7 142.9,39.2 
	142.6,39.8 142.2,40.6 142,41.4 141.7,42.3 141.7,42.3 141.6,42.8 141.6,43.3 141.6,43.8 141.6,44.3 141.6,44.8 141.7,45.2 
	141.9,45.7 142,46.1 142.2,46.5 142.5,46.9 142.8,47.2 143.2,47.5 143.6,47.7 144,48 144.5,48.1 145.1,48.3 145.1,48.3 145.3,48.3 
	145.5,48.4 145.7,48.4 146,48.4 146.4,48.4 146.7,48.4 147.1,48.4 147.4,48.4 147.8,48.4 148.2,48.3 148.6,48.2 148.9,48.1 
	149.3,47.9 149.6,47.7 149.9,47.5 150.2,47.3 149.6,51.1 149.6,51.1 149.5,51.2 149.4,51.2 149.3,51.3 149.1,51.4 149,51.5 
	148.8,51.6 148.5,51.7 148.3,51.8 147.9,51.9 147.6,52 147.1,52.1 146.6,52.1 146,52.1 145.4,52.2 144.6,52.1 143.8,52.1 
	143.8,52.1 143.1,52 142.5,51.9 141.8,51.7 141.1,51.4 140.5,51 139.8,50.6 139.3,50.1 138.7,49.5 138.2,48.9 137.8,48.2 
	137.5,47.4 137.2,46.5 137,45.5 137,44.5 137,43.4 137.2,42.2 137.2,42.2 137.3,41.6 137.4,41 137.6,40.5 137.7,40 137.9,39.5 
	138.1,39 138.2,38.5 138.5,38 138.7,37.6 138.9,37.2 139.1,36.8 139.4,36.4 139.7,36 140,35.7 140.3,35.4 140.6,35.1 140.9,34.8 
	141.2,34.5 141.6,34.3 142,34.1 142.4,33.8 142.7,33.7 143.2,33.5 143.6,33.3 144,33.2 144.5,33.1 145,33 145.5,32.9 146,32.8 
	146.5,32.7 147,32.7 147.6,32.7 147.6,32.7 148,32.7 148.5,32.7 148.9,32.8 149.4,32.8 149.8,32.9 150.2,33 150.6,33.1 150.9,33.1 
	151.2,33.2 151.5,33.3 151.8,33.4 152.1,33.5 152.3,33.6 152.4,33.6 152.6,33.7 152.7,33.7 151.9,37.7 "/>
<polygon class="st2" points="188,52.2 183.9,52.2 184.2,50.6 184.2,50.4 184,50.7 183.8,51 183.5,51.2 183.2,51.4 183,51.6 
	182.7,51.8 182.4,51.9 182.2,52 181.9,52.1 181.6,52.2 181.3,52.3 181,52.3 180.7,52.3 180.5,52.4 180.2,52.4 179.9,52.4 
	179.1,52.3 178.4,52.2 177.8,51.9 177.2,51.6 176.7,51.2 176.2,50.7 175.8,50.2 175.4,49.6 175.1,48.9 174.9,48.2 174.7,47.5 
	174.6,46.8 174.6,46.1 174.6,45.3 174.7,44.6 174.8,43.9 175,43 175.3,42.2 175.6,41.5 176,40.8 176.3,40.2 176.8,39.6 177.2,39.1 
	177.7,38.6 178.2,38.2 178.8,37.8 179.3,37.5 179.9,37.3 180.5,37.1 181.1,36.9 181.6,36.8 182.2,36.8 182.7,36.8 183.1,36.9 
	183.5,36.9 183.8,37 184.1,37.2 184.4,37.3 184.7,37.5 185,37.6 185.2,37.8 185.5,38 185.6,38.2 185.8,38.3 186,38.5 186.1,38.7 
	186.2,38.9 186.3,39.1 186.3,39.1 187.3,33.4 191.3,33.4 188,52.2 188,52.2 "/>
<polyline class="st3" points="188,52.2 183.9,52.2 184.2,50.6 184.2,50.4 184.2,50.4 184,50.7 183.8,51 183.5,51.2 183.2,51.4 
	183,51.6 182.7,51.8 182.4,51.9 182.2,52 181.9,52.1 181.6,52.2 181.3,52.3 181,52.3 180.7,52.3 180.5,52.4 180.2,52.4 179.9,52.4 
	179.9,52.4 179.1,52.3 178.4,52.2 177.8,51.9 177.2,51.6 176.7,51.2 176.2,50.7 175.8,50.2 175.4,49.6 175.1,48.9 174.9,48.2 
	174.7,47.5 174.6,46.8 174.6,46.1 174.6,45.3 174.7,44.6 174.8,43.9 174.8,43.9 175,43 175.3,42.2 175.6,41.5 176,40.8 176.3,40.2 
	176.8,39.6 177.2,39.1 177.7,38.6 178.2,38.2 178.8,37.8 179.3,37.5 179.9,37.3 180.5,37.1 181.1,36.9 181.6,36.8 182.2,36.8 
	182.2,36.8 182.7,36.8 183.1,36.9 183.5,36.9 183.8,37 184.1,37.2 184.4,37.3 184.7,37.5 185,37.6 185.2,37.8 185.5,38 185.6,38.2 
	185.8,38.3 186,38.5 186.1,38.7 186.2,38.9 186.3,39.1 186.3,39.1 187.3,33.4 191.3,33.4 188,52.2 "/>
<polygon class="st0" points="181.4,48.7 181.8,48.7 182.2,48.6 182.5,48.5 182.8,48.3 183.2,48.2 183.4,47.9 183.7,47.7 184,47.4 
	184.2,47.2 184.4,46.8 184.6,46.5 184.7,46.2 184.9,45.8 185,45.4 185.1,45 185.2,44.7 185.3,44.3 185.3,43.8 185.3,43.5 
	185.3,43.1 185.2,42.7 185.2,42.3 185.1,42 185,41.7 184.8,41.4 184.6,41.1 184.5,40.9 184.2,40.7 184,40.5 183.7,40.4 183.4,40.3 
	183.1,40.3 182.7,40.3 182.4,40.4 182,40.5 181.7,40.6 181.4,40.8 181.1,41 180.9,41.3 180.6,41.6 180.4,41.9 180.2,42.2 180,42.5 
	179.8,42.9 179.7,43.3 179.6,43.7 179.5,44.1 179.4,44.5 179.3,45.1 179.3,45.8 179.4,46.5 179.6,47.2 179.9,47.8 180.3,48.3 
	180.8,48.6 181.4,48.7 181.4,48.7 "/>
<polygon class="st2" points="91.4,49 90.8,52.2 87.1,52.2 87.2,51.6 87.3,51.1 87.3,50.7 87.4,50.4 87.2,50.7 86.9,50.9 86.7,51.1 
	86.4,51.3 86,51.5 85.6,51.7 85.3,51.9 84.9,52 84.4,52.1 84,52.2 83.6,52.3 83.1,52.4 82.7,52.4 82.3,52.4 81.9,52.4 81.5,52.3 
	81,52.2 80.5,52 80.1,51.9 79.7,51.6 79.4,51.4 79.1,51.2 78.9,50.9 78.7,50.6 78.5,50.3 78.4,50 78.2,49.7 78.1,49.3 78.1,49 
	78,48.7 78,48.4 78,48.1 78.1,47.5 78.1,47 78.3,46.5 78.5,46 78.7,45.5 79,45.1 79.3,44.7 79.6,44.3 80,44 80.4,43.7 80.8,43.4 
	81.3,43.2 81.8,43 82.2,42.9 82.7,42.7 83.2,42.6 83.3,42.6 83.4,42.6 83.5,42.6 83.6,42.6 83.8,42.6 84,42.6 84.2,42.5 84.5,42.5 
	84.7,42.5 85,42.4 85.2,42.4 85.5,42.4 85.7,42.4 85.9,42.4 86.1,42.4 86.3,42.4 86.6,42.4 87,42.4 87.3,42.4 87.6,42.4 87.9,42.4 
	88.1,42.4 88.2,42.4 88.3,42.4 88.3,42.3 88.4,42.1 88.5,41.8 88.5,41.5 88.4,41.2 88.3,40.9 88.1,40.6 87.9,40.4 87.6,40.2 
	87.3,40.1 87,40 86.6,40 86.2,40 85.7,40 85.3,40 84.8,40 84.3,40 83.8,40 83.4,40.1 82.9,40.1 82.5,40.2 82.1,40.3 81.7,40.3 
	81.3,40.4 81,40.5 80.7,40.6 80.5,40.7 80.4,40.8 81.4,37.3 81.7,37.2 82.1,37.1 82.4,37 82.8,36.9 83.1,36.8 83.5,36.8 83.9,36.7 
	84.3,36.7 84.7,36.7 85.1,36.6 85.5,36.6 86,36.6 86.5,36.6 87,36.6 87.5,36.6 88,36.7 88.4,36.7 88.8,36.8 89.3,36.9 89.8,37 
	90.2,37.2 90.6,37.4 91.1,37.6 91.5,37.9 91.9,38.2 92.2,38.5 92.5,38.9 92.7,39.4 92.8,39.8 92.9,40.3 92.9,40.8 92.8,41.4 
	91.4,49 91.4,49 "/>
<polyline class="st3" points="91.4,49 90.8,52.2 87.1,52.2 87.1,52.2 87.2,51.6 87.3,51.1 87.3,50.7 87.4,50.4 87.4,50.4 87.2,50.7 
	86.9,50.9 86.7,51.1 86.4,51.3 86,51.5 85.6,51.7 85.3,51.9 84.9,52 84.4,52.1 84,52.2 83.6,52.3 83.1,52.4 82.7,52.4 82.3,52.4 
	81.9,52.4 81.5,52.3 81.5,52.3 81,52.2 80.5,52 80.1,51.9 79.7,51.6 79.4,51.4 79.1,51.2 78.9,50.9 78.7,50.6 78.5,50.3 78.4,50 
	78.2,49.7 78.1,49.3 78.1,49 78,48.7 78,48.4 78,48.1 78,48.1 78.1,47.5 78.1,47 78.3,46.5 78.5,46 78.7,45.5 79,45.1 79.3,44.7 
	79.6,44.3 80,44 80.4,43.7 80.8,43.4 81.3,43.2 81.8,43 82.2,42.9 82.7,42.7 83.2,42.6 83.2,42.6 83.3,42.6 83.4,42.6 83.5,42.6 
	83.6,42.6 83.8,42.6 84,42.6 84.2,42.5 84.5,42.5 84.7,42.5 85,42.4 85.2,42.4 85.5,42.4 85.7,42.4 85.9,42.4 86.1,42.4 86.3,42.4 
	86.3,42.4 86.6,42.4 87,42.4 87.3,42.4 87.6,42.4 87.9,42.4 88.1,42.4 88.2,42.4 88.3,42.4 88.3,42.4 88.3,42.3 88.4,42.1 
	88.5,41.8 88.5,41.5 88.5,41.5 88.4,41.2 88.3,40.9 88.1,40.6 87.9,40.4 87.6,40.2 87.3,40.1 87,40 86.6,40 86.6,40 86.2,40 
	85.7,40 85.3,40 84.8,40 84.3,40 83.8,40 83.4,40.1 82.9,40.1 82.5,40.2 82.1,40.3 81.7,40.3 81.3,40.4 81,40.5 80.7,40.6 
	80.5,40.7 80.4,40.8 81.4,37.3 81.4,37.3 81.7,37.2 82.1,37.1 82.4,37 82.8,36.9 83.1,36.8 83.5,36.8 83.9,36.7 84.3,36.7 
	84.7,36.7 85.1,36.6 85.5,36.6 86,36.6 86.5,36.6 87,36.6 87.5,36.6 88,36.7 88,36.7 88.4,36.7 88.8,36.8 89.3,36.9 89.8,37 
	90.2,37.2 90.6,37.4 91.1,37.6 91.5,37.9 91.9,38.2 92.2,38.5 92.5,38.9 92.7,39.4 92.8,39.8 92.9,40.3 92.9,40.8 92.8,41.4 
	91.4,49 "/>
<polygon class="st1" points="87.8,45.2 87.8,45.2 87.8,45.1 87.7,45.1 87.5,45 87.4,45 87.2,45 87,45 86.7,45 86.5,45 86.3,45 
	86,45.1 85.8,45.1 85.6,45.1 85.4,45.2 85.2,45.2 85,45.2 84.9,45.3 84.8,45.3 84.6,45.4 84.5,45.4 84.3,45.5 84.1,45.6 83.9,45.7 
	83.7,45.9 83.5,46 83.3,46.1 83.1,46.3 83,46.5 82.8,46.7 82.7,46.9 82.6,47.1 82.6,47.3 82.6,47.8 82.6,48.2 82.8,48.5 83,48.7 
	83.2,48.8 83.5,48.9 83.7,49 83.9,49 84.4,49 84.8,48.9 85.1,48.9 85.5,48.8 85.8,48.7 86,48.6 86.3,48.4 86.5,48.3 86.7,48.1 
	86.9,48 87,47.8 87.1,47.6 87.2,47.5 87.3,47.3 87.4,47.1 87.5,47 87.6,46.6 87.7,46.1 87.8,45.6 87.8,45.2 87.8,45.2 "/>
<polygon class="st2" points="60.5,52.2 56.5,52.2 59.9,33.4 66.8,33.4 67.5,44.5 72.3,33.4 79.5,33.4 76.1,52.2 72.1,52.2 
	74.6,38.1 74.5,38.1 68.5,52.2 64,52.2 64,51.6 63.9,50 63.7,47.8 63.6,45.2 63.4,42.7 63.3,40.4 63.2,38.8 63.2,38.1 63.1,38.1 
	63.1,38.1 63,38.1 63,38.1 60.5,52.2 60.5,52.2 "/>
<polyline class="st3" points="60.5,52.2 56.5,52.2 59.9,33.4 66.8,33.4 67.5,44.5 72.3,33.4 79.5,33.4 76.1,52.2 72.1,52.2 
	74.6,38.1 74.5,38.1 68.5,52.2 64,52.2 64,52.2 64,51.6 63.9,50 63.7,47.8 63.6,45.2 63.4,42.7 63.3,40.4 63.2,38.8 63.2,38.1 
	63.2,38.1 63.1,38.1 63.1,38.1 63,38.1 63,38.1 60.5,52.2 "/>
<polygon class="st2" points="164.1,49 163.5,52.2 159.8,52.2 159.8,51.6 159.9,51.1 159.9,50.7 159.9,50.5 159.7,50.7 159.5,50.9 
	159.2,51.1 158.9,51.3 158.6,51.5 158.3,51.7 157.9,51.9 157.5,52 157.1,52.1 156.7,52.2 156.3,52.3 155.9,52.4 155.5,52.4 
	155.1,52.4 154.7,52.4 154.3,52.3 153.8,52.2 153.3,52 152.9,51.9 152.5,51.6 152.2,51.4 151.9,51.2 151.7,50.9 151.5,50.6 
	151.3,50.3 151.1,50 151,49.7 151,49.3 150.9,49 150.9,48.7 150.8,48.4 150.8,48.1 150.9,47.5 150.9,47 151.1,46.5 151.3,46 
	151.5,45.5 151.8,45.1 152.1,44.7 152.4,44.3 152.8,44 153.2,43.7 153.6,43.4 154.1,43.2 154.5,43 155,42.9 155.5,42.7 156,42.6 
	156,42.6 156.1,42.6 156.2,42.6 156.3,42.6 156.5,42.6 156.7,42.6 156.9,42.5 157.2,42.5 157.4,42.5 157.7,42.4 157.9,42.4 
	158.2,42.4 158.4,42.4 158.6,42.4 158.8,42.4 159,42.4 159.4,42.4 159.7,42.4 160,42.4 160.4,42.4 160.6,42.4 160.9,42.4 161,42.4 
	161.1,42.4 161.1,42.3 161.1,42.1 161.2,41.8 161.2,41.5 161.2,41.2 161,40.9 160.8,40.6 160.6,40.4 160.4,40.2 160.1,40.1 
	159.7,40 159.4,40 159,40 158.5,40 158.1,40 157.6,40 157.1,40 156.7,40 156.2,40.1 155.7,40.1 155.3,40.2 154.9,40.3 154.5,40.3 
	154.1,40.4 153.8,40.5 153.5,40.6 153.3,40.7 153.2,40.8 154.2,37.3 154.5,37.2 154.9,37.1 155.2,37 155.6,36.9 155.9,36.8 
	156.3,36.8 156.7,36.7 157.1,36.7 157.5,36.7 157.9,36.6 158.3,36.6 158.8,36.6 159.2,36.6 159.7,36.6 160.2,36.6 160.7,36.7 
	161.1,36.7 161.5,36.8 162,36.9 162.5,37 162.9,37.2 163.4,37.4 163.8,37.6 164.2,37.9 164.6,38.2 164.9,38.5 165.2,38.9 
	165.4,39.4 165.6,39.8 165.7,40.3 165.7,40.8 165.6,41.4 164.1,49 164.1,49 "/>
<polygon class="st2" points="163.5,52.3 163.6,52.2 164.2,49 164,49 163.4,52.2 163.5,52.1 163.5,52.3 163.6,52.3 163.6,52.2 
	163.5,52.3 163.5,52.3 "/>
<polygon class="st2" points="159.7,52.2 159.8,52.3 163.5,52.3 163.5,52.1 159.8,52.1 159.9,52.2 159.7,52.2 159.7,52.3 159.8,52.3 
	159.7,52.2 159.7,52.2 "/>
<polygon class="st2" points="160,50.6 159.8,50.5 159.8,50.7 159.8,51.1 159.8,51.6 159.7,52.2 159.9,52.2 159.9,51.6 160,51.1 
	160,50.7 160,50.6 159.8,50.5 160,50.6 160,50.6 "/>
<polygon class="st2" points="154.3,52.4 154.3,52.4 154.7,52.5 155.1,52.5 155.5,52.5 155.9,52.5 156.3,52.4 156.7,52.3 157.2,52.2 
	157.6,52.1 157.9,52 158.3,51.8 158.7,51.6 159,51.4 159.3,51.2 159.5,51 159.8,50.8 160,50.6 159.8,50.5 159.6,50.7 159.4,50.9 
	159.2,51.1 158.9,51.3 158.6,51.4 158.2,51.6 157.9,51.8 157.5,51.9 157.1,52 156.7,52.2 156.3,52.2 155.9,52.3 155.5,52.3 
	155.1,52.3 154.7,52.3 154.3,52.2 154.3,52.2 154.3,52.4 154.3,52.4 "/>
<polygon class="st2" points="150.7,48.1 150.7,48.1 150.7,48.4 150.8,48.7 150.8,49 150.9,49.4 150.9,49.7 151.1,50 151.2,50.3 
	151.4,50.6 151.6,50.9 151.8,51.2 152.1,51.5 152.4,51.7 152.8,51.9 153.3,52.1 153.7,52.3 154.3,52.4 154.3,52.2 153.8,52.1 
	153.3,52 152.9,51.8 152.5,51.6 152.2,51.3 152,51.1 151.7,50.8 151.5,50.6 151.4,50.3 151.2,50 151.1,49.7 151,49.3 151,49 
	150.9,48.7 150.9,48.4 150.9,48.1 150.9,48.1 150.7,48.1 150.7,48.1 "/>
<polygon class="st2" points="156,42.6 156,42.6 155.5,42.6 155,42.8 154.5,42.9 154,43.1 153.6,43.4 153.1,43.6 152.7,43.9 
	152.3,44.3 152,44.6 151.7,45 151.4,45.5 151.2,46 151,46.4 150.9,47 150.8,47.5 150.7,48.1 150.9,48.1 150.9,47.5 151,47 
	151.2,46.5 151.3,46 151.6,45.6 151.8,45.2 152.1,44.8 152.5,44.4 152.8,44.1 153.2,43.8 153.7,43.5 154.1,43.3 154.5,43.1 
	155,42.9 155.5,42.8 156,42.7 156,42.7 156,42.6 156,42.6 "/>
<polygon class="st2" points="159,42.3 159,42.3 158.8,42.3 158.6,42.3 158.4,42.3 158.2,42.3 157.9,42.3 157.7,42.4 157.4,42.4 
	157.2,42.4 156.9,42.4 156.7,42.5 156.5,42.5 156.3,42.5 156.2,42.5 156.1,42.5 156,42.6 156,42.6 156,42.7 156,42.7 156.1,42.7 
	156.2,42.7 156.3,42.7 156.5,42.7 156.7,42.6 156.9,42.6 157.2,42.6 157.4,42.6 157.7,42.5 157.9,42.5 158.2,42.5 158.4,42.5 
	158.6,42.5 158.8,42.5 159,42.5 159,42.5 159,42.3 159,42.3 "/>
<polygon class="st2" points="161,42.4 161.1,42.3 161,42.3 160.9,42.3 160.6,42.3 160.4,42.3 160,42.3 159.7,42.3 159.4,42.3 
	159,42.3 159,42.5 159.4,42.5 159.7,42.5 160,42.5 160.4,42.5 160.6,42.5 160.9,42.5 161,42.5 161.1,42.5 161.2,42.4 161.1,42.5 
	161.1,42.5 161.2,42.4 161,42.4 161,42.4 "/>
<polygon class="st2" points="161.1,41.5 161.1,41.5 161.1,41.8 161.1,42.1 161,42.3 161,42.4 161.2,42.4 161.2,42.3 161.2,42.1 
	161.3,41.8 161.3,41.5 161.3,41.5 161.1,41.5 161.1,41.5 "/>
<polygon class="st2" points="159.4,40.1 159.4,40.1 159.7,40.1 160,40.2 160.3,40.3 160.6,40.5 160.8,40.7 160.9,40.9 161.1,41.2 
	161.1,41.5 161.3,41.5 161.2,41.2 161.1,40.8 160.9,40.6 160.7,40.3 160.4,40.1 160.1,40 159.7,39.9 159.4,39.9 159.4,39.9 
	159.4,40.1 159.4,40.1 "/>
<polygon class="st2" points="153.1,40.8 153.2,40.8 153.4,40.8 153.6,40.7 153.8,40.6 154.1,40.5 154.5,40.4 154.9,40.4 155.3,40.3 
	155.7,40.2 156.2,40.2 156.7,40.1 157.1,40.1 157.6,40.1 158.1,40.1 158.5,40.1 159,40.1 159.4,40.1 159.4,39.9 159,39.9 
	158.5,39.9 158.1,39.9 157.6,39.9 157.1,39.9 156.7,40 156.2,40 155.7,40.1 155.3,40.1 154.9,40.2 154.5,40.3 154.1,40.3 
	153.8,40.4 153.5,40.5 153.3,40.6 153.1,40.7 153.3,40.8 153.1,40.8 153.1,40.8 "/>
<polygon class="st2" points="154.2,37.2 154.1,37.3 153.1,40.8 153.3,40.8 154.3,37.3 154.2,37.4 154.2,37.2 154.1,37.2 154.1,37.3 
	154.2,37.2 154.2,37.2 "/>
<polygon class="st2" points="160.7,36.6 160.7,36.6 160.2,36.5 159.7,36.5 159.2,36.5 158.8,36.5 158.3,36.5 157.9,36.6 157.5,36.6 
	157.1,36.6 156.7,36.6 156.3,36.7 155.9,36.7 155.5,36.8 155.2,36.9 154.8,37 154.5,37.1 154.2,37.2 154.2,37.4 154.6,37.3 
	154.9,37.2 155.2,37.1 155.6,37 155.9,36.9 156.3,36.9 156.7,36.8 157.1,36.8 157.5,36.7 157.9,36.7 158.3,36.7 158.8,36.7 
	159.2,36.7 159.7,36.7 160.2,36.7 160.7,36.7 160.7,36.7 160.7,36.6 160.7,36.6 "/>
<polygon class="st2" points="165.7,41.4 165.7,41.4 165.8,40.8 165.8,40.3 165.7,39.8 165.5,39.3 165.3,38.9 165,38.5 164.7,38.1 
	164.3,37.8 163.9,37.5 163.4,37.3 163,37.1 162.5,36.9 162,36.8 161.6,36.7 161.1,36.6 160.7,36.6 160.7,36.7 161.1,36.8 
	161.5,36.8 162,36.9 162.4,37.1 162.9,37.2 163.3,37.5 163.8,37.7 164.2,38 164.5,38.3 164.9,38.6 165.2,39 165.4,39.4 165.5,39.8 
	165.6,40.3 165.6,40.8 165.6,41.4 165.6,41.4 165.7,41.4 165.7,41.4 "/>
<polygon class="st2" points="164.2,49 164.2,49 165.7,41.4 165.6,41.4 164,49 164,49 164.2,49 164.2,49 "/>
<polygon class="st0" points="160.6,45.2 160.5,45.2 160.5,45.1 160.4,45 160.2,45 160.1,45 159.9,45 159.6,45 159.4,45 159.2,45 
	159,45 158.7,45.1 158.5,45.1 158.3,45.1 158.1,45.2 157.9,45.2 157.8,45.2 157.7,45.3 157.5,45.3 157.4,45.3 157.2,45.4 157,45.5 
	156.9,45.6 156.7,45.7 156.5,45.8 156.3,45.9 156.1,46.1 155.9,46.3 155.8,46.4 155.6,46.6 155.5,46.9 155.4,47.1 155.4,47.3 
	155.4,47.8 155.5,48.2 155.6,48.5 155.7,48.7 156,48.8 156.2,48.9 156.5,49 156.7,49 157.2,49 157.6,48.9 157.9,48.9 158.3,48.8 
	158.6,48.6 158.9,48.5 159.1,48.4 159.4,48.2 159.6,48 159.8,47.9 159.9,47.7 160.1,47.5 160.2,47.3 160.2,47.2 160.3,47 
	160.3,46.8 160.4,46.4 160.5,46 160.5,45.6 160.6,45.2 160.6,45.2 "/>
<polygon class="st2" points="190.7,50.2 190.8,49.9 190.9,49.5 191.1,49.1 191.3,48.8 191.7,48.6 192,48.4 192.4,48.3 192.8,48.3 
	193.2,48.3 193.6,48.4 193.9,48.6 194.2,48.8 194.5,49.1 194.7,49.5 194.8,49.9 194.8,50.2 194.4,50.2 194.4,50 194.3,49.6 
	194.2,49.3 194,49.1 193.7,48.9 193.5,48.8 193.1,48.7 192.8,48.6 192.5,48.7 192.1,48.8 191.9,48.9 191.6,49.1 191.4,49.3 
	191.3,49.6 191.2,50 191.2,50.2 190.7,50.2 190.7,50.2 "/>
<polygon class="st2" points="192.1,50.2 192.1,49.3 192.9,49.3 193,49.4 193.2,49.4 193.3,49.4 193.4,49.5 193.5,49.6 193.6,49.7 
	193.6,49.8 193.6,49.9 193.6,50 193.6,50.1 193.5,50.2 193.5,50.2 192.9,50.2 192.9,50.2 193,50.2 193.1,50.2 193.2,50.1 
	193.2,50.1 193.3,50 193.3,50 193.3,49.9 193.3,49.8 193.3,49.7 193.2,49.7 193.2,49.7 193.1,49.7 193,49.7 193,49.7 192.9,49.7 
	192.4,49.7 192.4,50.2 192.1,50.2 192.1,50.2 "/>
<polygon class="st2" points="190.7,50.2 190.7,50.3 190.8,50.7 190.9,51.1 191.1,51.4 191.3,51.7 191.7,52 192,52.2 192.4,52.3 
	192.8,52.3 193.2,52.3 193.6,52.2 193.9,52 194.2,51.7 194.5,51.4 194.7,51.1 194.8,50.7 194.9,50.3 194.8,50.2 194.4,50.2 
	194.4,50.3 194.4,50.6 194.3,51 194.2,51.2 194,51.5 193.7,51.7 193.5,51.8 193.1,51.9 192.8,52 192.5,51.9 192.1,51.8 191.9,51.7 
	191.6,51.5 191.4,51.2 191.3,51 191.2,50.6 191.2,50.3 191.2,50.2 190.7,50.2 190.7,50.2 "/>
<polygon class="st2" points="192.1,50.2 192.1,51.1 192.4,51.1 192.4,50.4 192.8,50.4 193.2,51.1 193.5,51.1 193.1,50.4 193.2,50.4 
	193.3,50.3 193.4,50.3 193.5,50.3 193.5,50.2 192.9,50.2 192.8,50.2 192.4,50.2 192.4,50.2 192.1,50.2 192.1,50.2 "/>
<path class="st3" d="M190.7,50.3L190.7,50.3l0-0.4l0.1-0.4l0.2-0.3l0.2-0.3l0.3-0.2l0.4-0.2l0.4-0.1l0.4,0l0,0l0.4,0l0.4,0.1
	l0.4,0.2l0.3,0.2l0.2,0.3l0.2,0.3l0.1,0.4l0,0.4l0,0l0,0.4l-0.1,0.4l-0.2,0.3l-0.2,0.3l-0.3,0.2l-0.4,0.2l-0.4,0.1l-0.4,0l0,0
	l-0.4,0l-0.4-0.1l-0.4-0.2l-0.3-0.2l-0.2-0.3l-0.2-0.3l-0.1-0.4L190.7,50.3 M192.4,51.1h-0.4v-1.7h0.8l0,0l0.2,0l0.2,0l0.1,0
	l0.1,0.1l0.1,0.1l0.1,0.1l0,0.1l0,0.1l0,0l0,0.1l0,0.1l0,0.1l-0.1,0.1l-0.1,0.1l-0.1,0l-0.1,0h-0.1l0.4,0.7h-0.3l-0.4-0.7h-0.4V51.1
	 M192.8,50.2L192.8,50.2l0.1,0l0.1,0l0.1,0l0.1,0l0.1,0l0,0l0-0.1v-0.1l0,0l0-0.1l0-0.1l0,0l0,0l-0.1,0l-0.1,0H193h-0.1h-0.4v0.6
	H192.8 M192.8,52L192.8,52l0.3,0l0.3-0.1l0.3-0.2l0.2-0.2l0.2-0.2l0.1-0.3l0.1-0.3l0-0.3l0,0l0-0.3l-0.1-0.3l-0.1-0.3l-0.2-0.2
	l-0.2-0.2l-0.3-0.1l-0.3-0.1l-0.3,0l0,0l-0.3,0l-0.3,0.1l-0.3,0.1l-0.2,0.2l-0.2,0.2l-0.1,0.3l-0.1,0.3l0,0.3l0,0l0,0.3l0.1,0.3
	l0.1,0.3l0.2,0.2l0.2,0.2l0.3,0.2l0.3,0.1L192.8,52"/>
<polygon class="st2" points="165.2,52.2 169.3,52.2 169.3,52.2 170.8,44 170.9,43.7 171,43.4 171,43.1 171.2,42.8 171.3,42.4 
	171.5,42.1 171.7,41.9 171.9,41.6 172.2,41.3 172.5,41.1 172.8,40.9 173.2,40.7 173.6,40.6 174.1,40.5 174.6,40.4 175.2,40.3 
	175.4,40.3 175.5,40.3 175.5,40.3 175.5,40.3 176.2,36.7 175.8,36.7 175.4,36.7 175,36.8 174.7,36.9 174.3,37 174,37.2 173.7,37.3 
	173.5,37.5 173.2,37.7 173,37.9 172.7,38.1 172.5,38.4 172.3,38.6 172,38.9 171.8,39.1 171.6,39.4 172.1,36.8 167.9,36.8 
	165.2,52.2 165.2,52.2 165.2,52.2 "/>
<polyline class="st3" points="165.2,52.2 169.3,52.2 169.3,52.2 170.8,44 170.8,44 170.9,43.7 171,43.4 171,43.1 171.2,42.8 
	171.3,42.4 171.5,42.1 171.7,41.9 171.9,41.6 172.2,41.3 172.5,41.1 172.8,40.9 173.2,40.7 173.6,40.6 174.1,40.5 174.6,40.4 
	175.2,40.3 175.2,40.3 175.4,40.3 175.5,40.3 175.5,40.3 175.5,40.3 176.2,36.7 176.2,36.7 175.8,36.7 175.4,36.7 175,36.8 
	174.7,36.9 174.3,37 174,37.2 173.7,37.3 173.5,37.5 173.2,37.7 173,37.9 172.7,38.1 172.5,38.4 172.3,38.6 172,38.9 171.8,39.1 
	171.6,39.4 172.1,36.8 167.9,36.8 165.2,52.2 165.2,52.2 "/>
<polygon class="st2" points="126.4,52.2 130.5,52.2 130.6,52.2 132,44 132.1,43.7 132.1,43.4 132.2,43.1 132.3,42.8 132.4,42.5 
	132.6,42.3 132.8,42 133,41.8 133.2,41.5 133.5,41.3 133.8,41.1 134.1,41 134.5,40.9 135,40.7 135.5,40.7 136.1,40.6 136.1,40.6 
	136.2,40.6 136.2,40.7 136.3,40.7 136.4,40.7 136.4,40.7 136.5,40.7 136.5,40.7 136.5,40.6 136.6,40.5 136.6,40.2 136.7,39.9 
	136.8,39.5 136.9,39.1 137,38.7 137.2,38.3 137.3,38.1 137.4,37.8 137.6,37.5 137.7,37.3 137.9,37 138,36.9 138,36.8 138.1,36.7 
	138,36.7 138,36.7 137.9,36.7 137.8,36.7 137.7,36.7 137.6,36.7 137.5,36.7 137.4,36.7 136.9,36.7 136.5,36.7 136.1,36.8 
	135.8,36.9 135.4,37 135.1,37.1 134.9,37.3 134.6,37.5 134.3,37.7 134.1,37.9 133.9,38.1 133.7,38.3 133.5,38.6 133.3,38.8 
	133,39.1 132.8,39.4 133.3,36.8 129.1,36.8 126.4,52.2 126.4,52.2 126.4,52.2 "/>
<polyline class="st3" points="126.4,52.2 130.5,52.2 130.6,52.2 132,44 132,44 132.1,43.7 132.1,43.4 132.2,43.1 132.3,42.8 
	132.4,42.5 132.6,42.3 132.8,42 133,41.8 133.2,41.5 133.5,41.3 133.8,41.1 134.1,41 134.5,40.9 135,40.7 135.5,40.7 136.1,40.6 
	136.1,40.6 136.1,40.6 136.2,40.6 136.2,40.7 136.3,40.7 136.4,40.7 136.4,40.7 136.5,40.7 136.5,40.7 136.5,40.7 136.5,40.6 
	136.6,40.5 136.6,40.2 136.7,39.9 136.8,39.5 136.9,39.1 137,38.7 137.2,38.3 137.2,38.3 137.3,38.1 137.4,37.8 137.6,37.5 
	137.7,37.3 137.9,37 138,36.9 138,36.8 138.1,36.7 138.1,36.7 138,36.7 138,36.7 137.9,36.7 137.8,36.7 137.7,36.7 137.6,36.7 
	137.5,36.7 137.4,36.7 137.4,36.7 136.9,36.7 136.5,36.7 136.1,36.8 135.8,36.9 135.4,37 135.1,37.1 134.9,37.3 134.6,37.5 
	134.3,37.7 134.1,37.9 133.9,38.1 133.7,38.3 133.5,38.6 133.3,38.8 133,39.1 132.8,39.4 133.3,36.8 129.1,36.8 126.4,52.2 
	126.4,52.2 "/>
<polygon class="st0" points="190.8,67.3 190.8,67.2 190.9,66.8 191.1,66.5 191.3,66.2 191.7,66 192,65.8 192.4,65.7 192.8,65.7 
	193.2,65.7 193.6,65.8 193.9,66 194.2,66.2 194.5,66.5 194.7,66.8 194.8,67.2 194.8,67.3 194.4,67.3 194.3,67 194.2,66.7 194,66.4 
	193.7,66.2 193.5,66.1 193.1,66 192.8,66 192.5,66 192.1,66.1 191.9,66.2 191.6,66.4 191.4,66.7 191.3,67 191.2,67.3 190.8,67.3 
	190.8,67.3 "/>
<polygon class="st0" points="192.1,67.3 192.1,66.8 192.9,66.8 193,66.8 193.2,66.8 193.3,66.8 193.4,66.9 193.5,66.9 193.6,67 
	193.6,67.1 193.6,67.3 193.3,67.3 193.3,67.2 193.3,67.1 193.3,67.1 193.2,67 193.2,67 193.1,67 193,67 193,67 192.9,67 192.4,67 
	192.4,67.3 192.1,67.3 192.1,67.3 "/>
<polygon class="st0" points="190.7,67.6 190.8,67.3 191.2,67.3 191.2,67.3 191.2,67.6 190.7,67.6 190.7,67.6 "/>
<polygon class="st0" points="192.1,67.6 192.1,67.3 192.4,67.3 192.4,67.5 192.8,67.5 192.9,67.5 193,67.5 193.1,67.5 193.2,67.4 
	193.2,67.4 193.3,67.4 193.3,67.3 193.3,67.3 193.6,67.3 193.6,67.3 193.6,67.4 193.6,67.4 193.5,67.5 193.5,67.6 192.1,67.6 
	192.1,67.6 "/>
<polygon class="st0" points="194.4,67.6 194.4,67.3 194.4,67.3 194.8,67.3 194.9,67.6 194.4,67.6 194.4,67.6 "/>
<polygon class="st0" points="190.7,67.6 190.7,67.6 190.8,68 190.9,68.4 191.1,68.8 191.3,69.1 191.7,69.3 192,69.5 192.4,69.6 
	192.8,69.6 193.2,69.6 193.6,69.5 193.9,69.3 194.2,69.1 194.5,68.8 194.7,68.4 194.8,68 194.9,67.6 194.9,67.6 194.4,67.6 
	194.4,67.6 194.4,68 194.3,68.3 194.2,68.5 194,68.8 193.7,69 193.5,69.1 193.1,69.2 192.8,69.3 192.5,69.2 192.1,69.1 191.9,69 
	191.6,68.8 191.4,68.5 191.3,68.3 191.2,68 191.2,67.6 191.2,67.6 190.7,67.6 190.7,67.6 "/>
<polygon class="st0" points="192.1,67.6 192.1,68.4 192.4,68.4 192.4,67.7 192.8,67.7 193.2,68.4 193.5,68.4 193.1,67.7 193.2,67.7 
	193.3,67.7 193.4,67.6 193.5,67.6 193.5,67.6 192.1,67.6 192.1,67.6 "/>
</svg>
